<svg xmlns="http://www.w3.org/2000/svg" width="24.998" height="24.998" viewBox="0 0 24.998 24.998">
  <g id="fullscreen" transform="translate(0 24.998) rotate(-90)">
    <g id="Group_176" data-name="Group 176">
      <path id="Path_152" data-name="Path 152" d="M11.2,9.911A1.282,1.282,0,0,0,10.824,9L4.414,2.588H6.464A1.294,1.294,0,1,0,6.464,0H1.294A1.3,1.3,0,0,0,0,1.294H0v5.17a1.294,1.294,0,0,0,2.588,0V4.414L9,10.829a1.3,1.3,0,0,0,1.831,0A1.318,1.318,0,0,0,11.2,9.911ZM25,23.7v-5.17a1.294,1.294,0,0,0-2.588,0h0v2.051L16,14.169A1.295,1.295,0,1,0,14.169,16l6.415,6.411H18.533a1.294,1.294,0,0,0,0,2.588H23.7A1.3,1.3,0,0,0,25,23.7Z" fill="#fff"/>
    </g>
  </g>
</svg>
