<svg xmlns="http://www.w3.org/2000/svg" width="19.252" height="25.488" viewBox="0 0 19.252 25.488">
  <g id="Group_113" data-name="Group 113" transform="translate(0 0)">
    <path id="Path_91" data-name="Path 91" d="M3.181,18.579a9.619,9.619,0,0,0,2.447,5.157h0c.489.6,2.371,2.673,4.856,2.748,1.844.075,3.689-.941,5.458-2.974h0A9.5,9.5,0,0,0,18.2,18.579s1.242.226,1.92-2.748-.678-2.3-.678-2.3c1.807-9.411-5.533-11.97-5.533-11.97A8.764,8.764,0,0,0,10.672,1a8.44,8.44,0,0,0-3.2.565s-7.34,2.56-5.533,11.97c0,0-1.393-.678-.678,2.3C1.939,18.767,3.181,18.579,3.181,18.579Z" transform="translate(-1.057 -1)" fill="#fff"/>
  </g>
</svg>
