<svg xmlns="http://www.w3.org/2000/svg" width="25" height="25" viewBox="0 0 25 25">
  <g id="Group_190" data-name="Group 190" transform="translate(-459 -742)">
    <path id="Help-icon" d="M11.983,16.111a1.59,1.59,0,1,0,1.118.466,1.524,1.524,0,0,0-1.118-.466M15.428,6.022a5.371,5.371,0,0,0-1.552-.683,6.976,6.976,0,0,0-1.8-.217A5,5,0,0,0,10.4,5.4a4.535,4.535,0,0,0-1.428.776A4.222,4.222,0,0,0,7.978,7.3,2.632,2.632,0,0,0,7.606,8.63a1.042,1.042,0,0,0,.373.869,1.412,1.412,0,0,0,.869.31,1.153,1.153,0,0,0,.714-.186A1.558,1.558,0,0,0,10,9.158a3.539,3.539,0,0,0,.31-.59,3.657,3.657,0,0,1,.341-.59,1.662,1.662,0,0,1,.559-.466,2.124,2.124,0,0,1,.962-.186,1.97,1.97,0,0,1,1.335.435,1.646,1.646,0,0,1,.248,2.049,4.25,4.25,0,0,1-.621.714c-.248.217-.528.435-.807.652a8.525,8.525,0,0,0-.807.683,3.116,3.116,0,0,0-.621.807,2.048,2.048,0,0,0-.248.993,1.359,1.359,0,0,0,.31.869,1.062,1.062,0,0,0,.931.4,1.433,1.433,0,0,0,.714-.155.943.943,0,0,0,.373-.4,2.685,2.685,0,0,0,.217-.528,2.752,2.752,0,0,1,.248-.528,1.647,1.647,0,0,1,.466-.466c.217-.155.435-.31.714-.5s.528-.4.807-.621a4.231,4.231,0,0,0,.745-.745,4.393,4.393,0,0,0,.559-.9,2.661,2.661,0,0,0,.217-1.118,3.429,3.429,0,0,0-.4-1.738,3.236,3.236,0,0,0-1.118-1.211" transform="translate(459.394 742.878)" fill="#fff"/>
    <g id="Ellipse_17" data-name="Ellipse 17" transform="translate(459 742)" fill="none" stroke="#fff" stroke-width="1.5">
      <circle cx="12.5" cy="12.5" r="12.5" stroke="none"/>
      <circle cx="12.5" cy="12.5" r="11.75" fill="none"/>
    </g>
  </g>
</svg>
