<svg id="Group_121" data-name="Group 121" xmlns="http://www.w3.org/2000/svg" width="23.808" height="33.125" viewBox="0 0 23.808 33.125">
  <path id="Path_106" data-name="Path 106" d="M11.231,19.49,8.148,31.721a1.845,1.845,0,1,1-3.58-.895L7.85,18V12.231L6.657,14.319c-.7,1.293-2.784.2-1.989-1.094L7.651,7.557a3.033,3.033,0,0,1,2.387-1.392h3.779A2.861,2.861,0,0,1,16.1,7.557l3.083,5.668c.7,1.293-1.392,2.387-2.088,1.094L16,12.231V18l3.182,12.828a1.845,1.845,0,1,1-3.58.895L12.524,19.49Zm-6.463-.895L2.58,27.346a1.279,1.279,0,1,1-2.486-.6L2.381,17.6V13.424l-.8,1.492a.845.845,0,0,1-1.492-.8l2.188-3.978a1.925,1.925,0,0,1,1.69-.994H6.06L4.071,12.828a1.872,1.872,0,0,0,3.083,2.088V17.9l-.8,3.083-.6-2.387Zm.5-13.822A2,2,0,0,1,7.253,6.762v.1c-.3.5-.6,1.094-.8,1.492a1.585,1.585,0,0,1-1.193.4,1.989,1.989,0,1,1,0-3.978ZM18.092,18.595l-.6,2.387L16.7,17.9V14.916a1.872,1.872,0,0,0,3.083-2.088L17.794,9.148h2.088a2.051,2.051,0,0,1,1.69.994l2.088,3.978a.8.8,0,1,1-1.392.8l-.8-1.492V17.6l2.287,9.148a1.327,1.327,0,0,1-2.585.6l-2.188-8.751Zm.4-13.822a1.991,1.991,0,1,1,0,3.978,1.5,1.5,0,0,1-1.094-.4c-.3-.4-.6-.994-.895-1.492v-.1A2,2,0,0,1,18.49,4.773ZM11.927,0a2.846,2.846,0,0,1,2.784,2.784,2.779,2.779,0,0,1-2.784,2.784A2.719,2.719,0,0,1,9.143,2.784,2.779,2.779,0,0,1,11.927,0Z" transform="translate(0.006)" fill="#fff"/>
</svg>
