<svg xmlns="http://www.w3.org/2000/svg" width="24.013" height="28.57" viewBox="0 0 24.013 28.57">
  <g id="Group_118" data-name="Group 118" transform="translate(0 0)">
    <path id="Path_96" data-name="Path 96" d="M156.1,46.858a2.876,2.876,0,1,1,2.158,3.447,2.881,2.881,0,0,1-2.158-3.447Z" transform="translate(-145.437 -41.599)" fill="#fff"/>
    <path id="Path_97" data-name="Path 97" d="M206.063,148.612l5.626,1.31h0a1.335,1.335,0,0,1,1.011,1.6h0a1.351,1.351,0,0,1-1.615,1.011l-5.632-1.3h0a1.351,1.351,0,0,1-1.011-1.615h0a1.357,1.357,0,0,1,1.622-1Z" transform="translate(-190.534 -138.494)" fill="#fff"/>
    <path id="Path_98" data-name="Path 98" d="M7.139,17.579l.041-.1h0l.041-.1h0L8.232,10.3a.722.722,0,0,0-.007-.21h0A1,1,0,0,0,8.157,9.9h0l-4.743-7.7h0A1.45,1.45,0,0,1,3.869.227h0A1.433,1.433,0,0,1,5.857.682l4.472,7.152A3.571,3.571,0,0,0,11.354,8.9h0a3.545,3.545,0,0,0,1.357.577h0l1.052.244h0a.183.183,0,0,1,.136.143h0a.156.156,0,0,1-.041.183,1.946,1.946,0,0,0-.523,1.9h0a1.925,1.925,0,0,0,1.425,1.364h0l.577.136h0a.4.4,0,0,1,.251.183h0a.41.41,0,0,1,.027.312l-1.676,5.212a.585.585,0,0,0,.007.373h0a.486.486,0,0,0,.251.292h0L23.026,25h0a1.933,1.933,0,0,1,.692,2.633h0a1.923,1.923,0,0,1-2.633.679L10.214,21.943a1.651,1.651,0,0,0-.441-.17h0a1.746,1.746,0,0,0-.461-.041h0l-4.506.353a.538.538,0,0,0-.407.21h0a.551.551,0,0,0-.115.441h0l.536,3.495h0a1.926,1.926,0,0,1-1.6,2.2h0a1.93,1.93,0,0,1-2.2-1.615L-.02,20.253h0a1.589,1.589,0,0,1,.319-1.2h0a1.572,1.572,0,0,1,1.086-.577l5.259-.4A.558.558,0,0,0,7,17.919H7a.612.612,0,0,0,.176-.333l-.034-.007Z" transform="translate(0.036 -0.004)" fill="#fff"/>
  </g>
</svg>
