<svg xmlns="http://www.w3.org/2000/svg" width="25.096" height="29.023" viewBox="0 0 25.096 29.023">
  <g id="Group_15" data-name="Group 15" transform="translate(0)">
    <path id="Path_7" data-name="Path 7" d="M28.851,69.084a1.8,1.8,0,0,1-1.792,1.792H25.089A1.8,1.8,0,0,1,23.3,69.084V67.615c-.466-.036-.967-.107-1.4-.179v1.648a3.2,3.2,0,0,0,3.189,3.189H27.06a3.2,3.2,0,0,0,3.189-3.189V67.4c-.466.072-.932.143-1.4.179Z" transform="translate(-14.053 -43.25)" fill="#fff"/>
    <path id="Path_8" data-name="Path 8" d="M22.8,3.834A3.834,3.834,0,1,0,26.634,0,3.838,3.838,0,0,0,22.8,3.834ZM26.634,1.4A2.436,2.436,0,1,1,24.2,3.834,2.439,2.439,0,0,1,26.634,1.4Z" transform="translate(-14.631 0)" fill="#fff"/>
    <path id="Path_9" data-name="Path 9" d="M25.081,35.1A13.759,13.759,0,0,0,23.9,31.622c-.107-.215-.251-.466-.394-.717a.2.2,0,0,0-.179-.107c-.072,0-.143,0-.179.072a35.534,35.534,0,0,1-3.189,2.58c-.5.358-1.039.717-1.612,1.111a.325.325,0,0,0-.107.251.227.227,0,0,0,.215.179c.251.036.537.036.788.072.287.036.537.036.824.072a1.8,1.8,0,0,1-.466.179c-.43.143-.86.322-1.326.43a17.114,17.114,0,0,1-2.042.43V34.739a3.266,3.266,0,0,0,1.218-2.508V25.889A3.2,3.2,0,0,0,14.26,22.7H9.817a3.2,3.2,0,0,0-3.189,3.189V28.4C2.616,29.185,0,30.869,0,32.912a2.365,2.365,0,0,0,.215.967c1.039,2.365,5.733,4.013,11.717,4.013,4.73,0,8.671-1.039,10.606-2.651l2.329.107H24.9a.272.272,0,0,0,.143-.072A.158.158,0,0,0,25.081,35.1ZM7.811,36.208a18.69,18.69,0,0,1-3.583-.9,5.186,5.186,0,0,1-2.687-1.827c-.036-.072-.072-.179-.107-.251a.789.789,0,0,1-.036-.287c0-.824,1.075-1.72,2.831-2.4a14.133,14.133,0,0,1,2.365-.681v2.365a3.266,3.266,0,0,0,1.218,2.508Zm8.133-3.977a1.708,1.708,0,0,1-.824,1.541.739.739,0,0,0-.358.609v2.006a25.176,25.176,0,0,1-2.866.143,21.731,21.731,0,0,1-2.687-.143V34.345a.739.739,0,0,0-.358-.609,1.853,1.853,0,0,1-.9-1.541V25.889A1.8,1.8,0,0,1,9.746,24.1h4.407a1.8,1.8,0,0,1,1.792,1.792v6.342Z" transform="translate(0 -14.567)" fill="#fff"/>
  </g>
</svg>
