<svg xmlns="http://www.w3.org/2000/svg" width="30.086" height="28.386" viewBox="0 0 30.086 28.386">
  <g id="Group_122" data-name="Group 122" transform="translate(0 0)">
    <path id="Path_61" data-name="Path 61" d="M19.566,5.693l4.722-4.609A.453.453,0,0,1,24.541,1h2.248a.305.305,0,0,1,.253.112L29.459,3.67l2.417-2.558A.343.343,0,0,1,32.129,1h2.248a.453.453,0,0,1,.253.084l4.722,4.581a.35.35,0,0,1,.028.478l-2.052,2.3a.356.356,0,0,1-.506,0L34.855,6.48a.346.346,0,0,0-.59.253v6.689a.325.325,0,0,1-.337.337h-9.19a.325.325,0,0,1-.337-.337v-6.6a.335.335,0,0,0-.59-.225L22.152,8.448a.356.356,0,0,1-.506,0L19.594,6.171A.325.325,0,0,1,19.566,5.693Z" transform="translate(-14.29 -1)" fill="#fff"/>
    <path id="Path_62" data-name="Path 62" d="M30.289,52H40.407l2.417,9.7a.337.337,0,0,1-.337.422H38.13a.365.365,0,0,1-.337-.225l-2.164-6.6a.312.312,0,0,0-.59,0l-2.164,6.6a.339.339,0,0,1-.337.225H28.209a.348.348,0,0,1-.337-.422Z" transform="translate(-20.319 -37.667)" fill="#fff"/>
    <path id="Path_63" data-name="Path 63" d="M63.865,93h4.3a.34.34,0,0,1,.337.393A2.371,2.371,0,0,1,66,95.529a2.4,2.4,0,0,1-2.5-2.136A.4.4,0,0,1,63.865,93Z" transform="translate(-45.942 -67.144)" fill="#fff"/>
    <path id="Path_64" data-name="Path 64" d="M27.865,93h4.3a.34.34,0,0,1,.337.393,2.533,2.533,0,0,1-5,0A.4.4,0,0,1,27.865,93Z" transform="translate(-20.059 -67.144)" fill="#fff"/>
    <path id="Path_65" data-name="Path 65" d="M3.66,28.63l2.052,2.052a.323.323,0,0,1,0,.478L3.66,33.211a.323.323,0,0,1-.478,0L1.13,31.16a.323.323,0,0,1,0-.478L3.182,28.63A.323.323,0,0,1,3.66,28.63Z" transform="translate(-1.025 -20.789)" fill="#fff"/>
    <path id="Path_66" data-name="Path 66" d="M91.13,30.582l2.052-2.052a.323.323,0,0,1,.478,0l2.052,2.052a.323.323,0,0,1,0,.478L93.66,33.111a.323.323,0,0,1-.478,0L91.13,31.06A.323.323,0,0,1,91.13,30.582Z" transform="translate(-65.731 -20.717)" fill="#fff"/>
  </g>
</svg>
