<svg xmlns="http://www.w3.org/2000/svg" width="100" height="99.268" viewBox="0 0 100 99.268">
  <g id="Group_173" data-name="Group 173" transform="translate(-0.3 -0.3)">
    <path id="Path_151" data-name="Path 151" d="M50.3.3A49.635,49.635,0,1,1,.3,49.934,49.835,49.835,0,0,1,50.3.3ZM71.8,85.015a41.833,41.833,0,0,1-42.683.163L44.162,28.1c1.179-4.553,2.927-8.374,5.935-8.374s4.878,3.78,6.057,8.333L71.8,85.015Zm10.122-8.7a40.381,40.381,0,0,0,9.715-26.382,41.343,41.343,0,0,0-82.683,0,40.636,40.636,0,0,0,9.634,26.341l19.8-53.252C40.5,16.8,43.227,11.357,49.934,11.194c6.707.122,9.715,5.569,11.87,11.789L81.926,76.316Z" fill="rgba(0,0,0,0.14)" fill-rule="evenodd"/>
  </g>
</svg>
